# Blender v3.0.0 OBJ File: 'Tile_6.blend'
# www.blender.org
mtllib Door_Wood.mtl
o Ground_LP.009_Cube.033
v -0.000303 0.014449 0.367566
v 0.221742 0.480598 0.367566
v 0.228436 0.014449 0.367566
v 0.203192 0.535836 0.367566
v 0.151896 0.594261 0.367566
v 0.080483 0.637409 0.367566
v -0.000303 0.656313 0.367566
v 0.228436 0.014449 0.334797
v 0.221742 0.480598 0.334797
v 0.203192 0.535836 0.334797
v 0.152066 0.593893 0.334797
v 0.080653 0.637409 0.334797
v -0.229041 0.014449 0.367566
v -0.222347 0.480598 0.367566
v -0.078968 0.636349 0.367566
v -0.198497 0.540076 0.367566
v -0.144021 0.596911 0.367566
v -0.002313 0.014449 0.334797
v -0.229041 0.014449 0.334797
v -0.222347 0.480598 0.334797
v -0.198497 0.540076 0.334797
v -0.144021 0.596911 0.334797
v -0.078968 0.636349 0.334797
v -0.002313 0.656313 0.334797
v -0.175464 0.207699 0.363231
v -0.163741 0.212285 0.363232
v -0.163741 0.221459 0.363232
v -0.175464 0.226046 0.363231
v -0.187187 0.221459 0.363232
v -0.187187 0.212285 0.363232
v -0.175464 0.299437 0.363231
v -0.163741 0.294850 0.363232
v -0.163741 0.285676 0.363232
v -0.175464 0.281089 0.363231
v -0.187187 0.285676 0.363232
v -0.187187 0.294850 0.363232
v -0.175464 0.286002 0.395137
v -0.163741 0.282758 0.391946
v -0.163741 0.276272 0.385565
v -0.175464 0.273028 0.382375
v -0.187187 0.276272 0.385565
v -0.187187 0.282758 0.391946
v -0.175464 0.253568 0.408353
v -0.163741 0.253568 0.403841
v -0.163741 0.253568 0.394816
v -0.175464 0.253568 0.390304
v -0.187187 0.253568 0.394816
v -0.187187 0.253568 0.403840
v -0.175464 0.221133 0.395137
v -0.163741 0.224377 0.391946
v -0.163741 0.230864 0.385565
v -0.175464 0.234107 0.382375
v -0.187187 0.230864 0.385565
v -0.187187 0.224377 0.391947
vt 0.711262 0.000000
vt 0.711262 0.654446
vt 0.474175 0.654446
vt 0.481113 0.179159
vt 0.500340 0.122839
vt 0.553509 0.063268
vt 0.627528 0.019274
vt 0.948350 0.472956
vt 0.960414 0.472969
vt 0.961079 0.531120
vt 0.949015 0.531107
vt 0.235004 0.000000
vt 0.320998 0.019274
vt 0.395017 0.063643
vt 0.448010 0.122839
vt 0.467237 0.179159
vt 0.474175 0.654446
vt 0.235004 0.654446
vt 0.987916 0.237087
vt 1.000000 0.235004
vt 1.000000 0.474175
vt 0.987916 0.474175
vt 0.000014 0.735160
vt 0.012099 0.734988
vt 0.012084 0.823015
vt 0.000000 0.820961
vt 0.963647 0.595993
vt 0.951590 0.596373
vt 0.951583 0.000000
vt 0.963647 0.000013
vt 0.963647 0.650162
vt 0.963647 0.000000
vt 0.975832 0.000158
vt 0.975832 0.650320
vt 0.000048 0.654683
vt 0.012133 0.654446
vt 0.792799 0.020355
vt 0.860227 0.060566
vt 0.916691 0.118516
vt 0.941412 0.179159
vt 0.948350 0.654446
vt 0.987916 0.467118
vt 0.987916 0.531474
vt 0.975832 0.531474
vt 0.975832 0.467118
vt 0.000000 0.654446
vt 0.006938 0.179159
vt 0.031658 0.118516
vt 0.088123 0.060566
vt 0.155550 0.020355
vt 0.987916 0.000000
vt 1.000000 0.000000
vt 0.000017 0.897788
vt 0.012101 0.897789
vt 0.987916 0.599523
vt 0.975832 0.599523
vt 0.975832 0.000000
vt 0.000049 0.957303
vt 0.012133 0.957305
vt 0.783477 0.953125
vt 0.790176 0.953125
vt 0.790176 0.962057
vt 0.783477 0.962057
vt 0.790176 0.970989
vt 0.783477 0.970989
vt 0.790176 0.979921
vt 0.783477 0.979921
vt 0.783477 0.926329
vt 0.790176 0.926329
vt 0.790176 0.935261
vt 0.783477 0.935261
vt 0.790176 0.944193
vt 0.783477 0.944193
vt 0.796875 0.953125
vt 0.796875 0.962057
vt 0.796875 0.970989
vt 0.796875 0.979921
vt 0.796875 0.926329
vt 0.796875 0.935261
vt 0.796875 0.944193
vt 0.803574 0.953125
vt 0.803574 0.962057
vt 0.803574 0.970989
vt 0.803574 0.979921
vt 0.803574 0.926329
vt 0.803574 0.935261
vt 0.803574 0.944193
vt 0.810273 0.953125
vt 0.810273 0.962057
vt 0.810273 0.970989
vt 0.810273 0.979921
vt 0.810273 0.926329
vt 0.810273 0.935261
vt 0.810273 0.944193
vn -0.0000 0.0000 1.0000
vn 0.9480 0.3184 0.0000
vn 0.0000 0.0000 -1.0000
vn 0.0000 -1.0000 0.0000
vn 0.2250 0.9743 -0.0063
vn 0.7510 0.6603 -0.0018
vn 0.9999 0.0144 0.0000
vn 0.9981 0.0000 -0.0612
vn 0.5187 0.8549 -0.0021
vn -0.9282 0.3722 0.0000
vn -0.2490 0.9685 0.0076
vn -0.7219 0.6920 0.0000
vn -0.9999 0.0144 0.0000
vn -0.5184 0.8551 0.0000
vn 0.0000 0.9216 0.3881
vn 0.0000 0.7038 0.7104
vn 0.7630 0.4537 0.4603
vn 0.7363 0.6236 0.2626
vn 0.8912 -0.3192 -0.3222
vn 0.8770 -0.4427 -0.1864
vn 0.0000 -0.7020 -0.7122
vn 0.0000 -0.9216 -0.3881
vn -0.8912 -0.3192 -0.3222
vn -0.8770 -0.4427 -0.1864
vn -0.7630 0.4537 0.4603
vn -0.7363 0.6236 0.2626
vn 0.7629 0.0000 0.6465
vn 0.8897 0.0000 -0.4565
vn -0.8897 0.0000 -0.4565
vn -0.7629 0.0000 0.6465
vn 0.0000 -0.7038 0.7104
vn 0.7630 -0.4537 0.4603
vn 0.8912 0.3192 -0.3222
vn 0.0000 0.7020 -0.7122
vn -0.8912 0.3192 -0.3222
vn -0.7630 -0.4537 0.4603
vn 0.0000 -0.9216 0.3881
vn 0.7363 -0.6236 0.2626
vn 0.8770 0.4427 -0.1864
vn 0.0000 0.9216 -0.3881
vn -0.8770 0.4427 -0.1864
vn -0.7363 -0.6236 0.2626
usemtl Wood_1Mat
s off
f 7/1/1 1/2/1 3/3/1 2/4/1 4/5/1 5/6/1 6/7/1
f 2/8/2 9/9/2 10/10/2 4/11/2
f 24/12/3 12/13/3 11/14/3 10/15/3 9/16/3 8/17/3 18/18/3
f 1/19/4 18/20/4 8/21/4 3/22/4
f 6/23/5 12/24/5 24/25/5 7/26/5
f 4/11/6 10/10/6 11/27/6 5/28/6
f 3/29/7 8/30/7 9/9/7 2/8/7
f 7/31/8 1/32/8 18/33/8 24/34/8
f 5/35/9 11/36/9 12/24/9 6/23/9
f 7/1/1 15/37/1 17/38/1 16/39/1 14/40/1 13/41/1 1/2/1
f 14/42/10 16/43/10 21/44/10 20/45/10
f 24/12/3 18/18/3 19/46/3 20/47/3 21/48/3 22/49/3 23/50/3
f 1/19/4 13/51/4 19/52/4 18/20/4
f 15/53/11 7/26/11 24/25/11 23/54/11
f 16/43/12 17/55/12 22/56/12 21/44/12
f 13/51/13 14/42/13 20/45/13 19/57/13
f 17/58/14 15/53/14 23/54/14 22/59/14
s 1
f 31/60/15 37/61/16 38/62/17 32/63/18
f 32/63/18 38/62/17 39/64/19 33/65/20
f 33/65/20 39/64/19 40/66/21 34/67/22
f 34/68/22 40/69/21 41/70/23 35/71/24
f 35/71/24 41/70/23 42/72/25 36/73/26
f 36/73/26 42/72/25 37/61/16 31/60/15
f 37/61/16 43/74/1 44/75/27 38/62/17
f 38/62/17 44/75/27 45/76/28 39/64/19
f 39/64/19 45/76/28 46/77/3 40/66/21
f 40/69/21 46/78/3 47/79/29 41/70/23
f 41/70/23 47/79/29 48/80/30 42/72/25
f 42/72/25 48/80/30 43/74/1 37/61/16
f 43/74/1 49/81/31 50/82/32 44/75/27
f 44/75/27 50/82/32 51/83/33 45/76/28
f 45/76/28 51/83/33 52/84/34 46/77/3
f 46/78/3 52/85/34 53/86/35 47/79/29
f 47/79/29 53/86/35 54/87/36 48/80/30
f 48/80/30 54/87/36 49/81/31 43/74/1
f 49/81/31 25/88/37 26/89/38 50/82/32
f 50/82/32 26/89/38 27/90/39 51/83/33
f 51/83/33 27/90/39 28/91/40 52/84/34
f 52/85/34 28/92/40 29/93/41 53/86/35
f 53/86/35 29/93/41 30/94/42 54/87/36
f 54/87/36 30/94/42 25/88/37 49/81/31
