# Blender v3.0.0 OBJ File: 'Tile_6.blend'
# www.blender.org
mtllib Door_Frame.mtl
o Ground_LP.005_Cube.027
v 0.500000 0.013722 0.500041
v 0.342805 0.058883 0.333320
v 0.500000 1.000000 0.333320
v 0.000000 1.000000 0.333320
v 0.298864 0.680285 0.388894
v 0.240595 0.742611 0.388894
v 0.313744 0.058883 0.500041
v 0.297647 0.537078 0.333320
v 0.297432 0.586226 0.333320
v 0.000000 0.783605 0.333320
v 0.313744 0.058883 0.333320
v 0.297648 0.537078 0.500041
v 0.500000 0.586226 0.500041
v 0.297432 0.586226 0.500041
v 0.500000 0.537096 0.500041
v 0.500000 0.000000 0.500041
v 0.500000 0.058883 0.500041
v 0.342891 0.058883 0.444467
v 0.500000 0.537096 0.444467
v 0.500000 0.058883 0.444467
v 0.340693 0.537123 0.444467
v 0.318075 0.586226 0.444467
v 0.274030 0.651836 0.444467
v 0.215761 0.714162 0.444467
v 0.139694 0.755810 0.444467
v 0.061987 0.782943 0.444467
v 0.000000 0.783605 0.444467
v 0.357216 0.586226 0.444467
v 0.298864 0.680285 0.444467
v 0.240595 0.742611 0.444467
v 0.164528 0.784259 0.444467
v 0.086822 0.811393 0.444467
v 0.000000 0.821074 0.444467
v 0.313919 0.000000 0.500041
v 0.000000 0.000000 0.500041
v 0.357217 0.586226 0.388894
v 0.313919 0.013722 0.500041
v 0.000000 0.013722 0.500041
v 0.000000 0.950000 0.388894
v 0.500000 0.950000 0.388894
v 0.164528 0.784259 0.388894
v 0.086822 0.811393 0.388894
v 0.000000 0.821074 0.388894
v 0.500000 0.586226 0.388894
v 0.000000 0.950000 0.431773
v 0.000000 1.000000 0.431773
v 0.500000 0.950000 0.431773
v 0.500000 1.000000 0.431773
v 0.340693 0.537123 0.333320
v 0.139694 0.755810 0.333320
v 0.061987 0.782943 0.333320
v 0.318075 0.586226 0.333320
v 0.313919 0.013722 0.333320
v 0.274030 0.651836 0.333320
v 0.215761 0.714162 0.333320
v 0.000000 0.013722 0.333320
v -0.500000 0.013722 0.500041
v -0.342805 0.058883 0.333320
v -0.500000 1.000000 0.333320
v -0.298864 0.680285 0.388894
v -0.240595 0.742611 0.388894
v -0.313744 0.058883 0.500041
v -0.297647 0.537078 0.333320
v -0.297432 0.586226 0.333320
v -0.313744 0.058883 0.333320
v -0.297648 0.537078 0.500041
v -0.500000 0.586226 0.500041
v -0.297432 0.586226 0.500041
v -0.500000 0.537096 0.500041
v -0.500000 0.000000 0.500041
v -0.500000 0.058883 0.500041
v -0.342891 0.058883 0.444467
v -0.500000 0.537096 0.444467
v -0.500000 0.058883 0.444467
v -0.340693 0.537123 0.444467
v -0.318075 0.586226 0.444467
v -0.274030 0.651836 0.444467
v -0.215761 0.714162 0.444467
v -0.139694 0.755810 0.444467
v -0.061987 0.782943 0.444467
v -0.357216 0.586226 0.444467
v -0.298864 0.680285 0.444467
v -0.240595 0.742611 0.444467
v -0.164528 0.784259 0.444467
v -0.086822 0.811393 0.444467
v -0.313919 0.000000 0.500041
v -0.357217 0.586226 0.388894
v -0.313919 0.013722 0.500041
v -0.500000 0.950000 0.388894
v -0.164528 0.784259 0.388894
v -0.086822 0.811393 0.388894
v -0.500000 0.586226 0.388894
v -0.500000 0.950000 0.431773
v -0.500000 1.000000 0.431773
v -0.340693 0.537123 0.333320
v -0.139694 0.755810 0.333320
v -0.061987 0.782943 0.333320
v -0.318075 0.586226 0.333320
v -0.313919 0.013722 0.333320
v -0.274030 0.651836 0.333320
v -0.215761 0.714162 0.333320
v 0.342805 0.058883 0.333320
v 0.297647 0.537078 0.333320
v 0.297432 0.586226 0.333320
v 0.000000 0.783605 0.333320
v 0.313744 0.058883 0.333320
v 0.340693 0.537123 0.333320
v 0.139694 0.755810 0.333320
v 0.061987 0.782943 0.333320
v 0.318075 0.586226 0.333320
v 0.313919 0.013722 0.333320
v 0.274030 0.651836 0.333320
v 0.215761 0.714162 0.333320
v 0.000000 0.657220 0.333321
v 0.228738 0.013722 0.333321
v 0.222045 0.481681 0.333321
v 0.179416 0.563466 0.333321
v 0.128455 0.610840 0.333321
v 0.064462 0.643075 0.333321
v 0.000000 0.657220 0.386906
v 0.228738 0.013722 0.386906
v 0.222045 0.481681 0.386906
v 0.179416 0.563466 0.386906
v 0.128455 0.610840 0.386906
v 0.064462 0.643075 0.386906
v 0.000000 0.680108 0.333321
v 0.000000 0.680108 0.386906
v 0.068914 0.664085 0.333321
v 0.068914 0.664085 0.386906
v 0.134815 0.631846 0.333321
v 0.134815 0.631846 0.386906
v 0.189592 0.585561 0.333321
v 0.189592 0.585561 0.386906
v 0.213367 0.514378 0.386906
v 0.213367 0.514378 0.333321
v 0.250000 0.481681 0.333321
v 0.250000 0.481681 0.386906
v 0.250000 0.013722 0.333321
v 0.250000 0.013722 0.386906
v 0.232153 0.530743 0.386906
v 0.232153 0.530743 0.333321
v 0.227951 0.062301 0.333321
v 0.227951 0.062301 0.386906
v 0.250000 0.062301 0.386906
v 0.250000 0.062301 0.333321
v -0.342805 0.058883 0.333320
v -0.297647 0.537078 0.333320
v -0.297432 0.586226 0.333320
v -0.313744 0.058883 0.333320
v -0.340693 0.537123 0.333320
v -0.139694 0.755810 0.333320
v -0.061987 0.782943 0.333320
v -0.318075 0.586226 0.333320
v -0.313919 0.013722 0.333320
v -0.274030 0.651836 0.333320
v -0.215761 0.714162 0.333320
v -0.228738 0.013722 0.333321
v -0.222045 0.481681 0.333321
v -0.179416 0.563466 0.333321
v -0.128455 0.610840 0.333321
v -0.064462 0.643075 0.333321
v -0.228738 0.013722 0.386906
v -0.222045 0.481681 0.386906
v -0.179416 0.563466 0.386906
v -0.128455 0.610840 0.386906
v -0.064462 0.643075 0.386906
v -0.068914 0.664085 0.333321
v -0.068914 0.664085 0.386906
v -0.134815 0.631846 0.333321
v -0.134815 0.631846 0.386906
v -0.189592 0.585561 0.333321
v -0.189592 0.585561 0.386906
v -0.213367 0.514378 0.386906
v -0.213367 0.514378 0.333321
v -0.250000 0.481681 0.333321
v -0.250000 0.481681 0.386906
v -0.250000 0.013722 0.333321
v -0.250000 0.013722 0.386906
v -0.232153 0.530743 0.386906
v -0.232153 0.530743 0.333321
v -0.227951 0.062301 0.333321
v -0.227951 0.062301 0.386906
v -0.250000 0.062301 0.386906
v -0.250000 0.062301 0.333321
vt 0.856505 0.582027
vt 0.799076 0.582027
vt 0.799076 0.542724
vt 0.856505 0.542724
vt 0.483778 0.887449
vt 0.512493 0.887448
vt 0.512493 0.921351
vt 0.483778 0.921352
vt 0.358133 0.812112
vt 0.329419 0.812112
vt 0.329419 0.767252
vt 0.358133 0.767252
vt 0.987232 0.749719
vt 0.987232 0.835862
vt 0.963942 0.835862
vt 0.963942 0.749719
vt 0.856505 0.622178
vt 0.799076 0.622178
vt 0.856505 0.654207
vt 0.799076 0.654207
vt 0.380281 0.822197
vt 0.380281 0.807182
vt 0.466424 0.807182
vt 0.437710 0.822242
vt 0.873859 0.889378
vt 0.931288 0.889377
vt 0.931287 0.919771
vt 0.873858 0.919773
vt 0.948641 0.961414
vt 0.948651 0.856860
vt 0.974036 0.856860
vt 0.974036 0.961526
vt 0.481084 0.542724
vt 0.562261 0.542724
vt 0.562261 0.789814
vt 0.479948 0.789828
vt 0.706939 0.357596
vt 0.706939 0.377820
vt 0.658340 0.347669
vt 0.673039 0.334838
vt 0.619316 0.265427
vt 0.604617 0.278259
vt 0.590597 0.238108
vt 0.605296 0.225277
vt 0.626136 0.317562
vt 0.640835 0.304730
vt 0.585594 0.193248
vt 0.604955 0.193248
vt 0.358133 0.727101
vt 0.329419 0.727101
vt 0.329419 0.687798
vt 0.358133 0.687798
vt 0.822941 0.267024
vt 0.822941 0.429224
vt 0.815851 0.429224
vt 0.815851 0.267024
vt 0.815851 0.525371
vt 0.822941 0.525371
vt 0.466424 0.903419
vt 0.437710 0.903419
vt 0.781722 0.542724
vt 0.781722 0.789344
vt 0.724293 0.789342
vt 0.724293 0.542724
vt 0.873859 0.856862
vt 0.931288 0.856860
vt 0.989287 0.628868
vt 0.963942 0.628868
vt 0.963942 0.542724
vt 0.989287 0.542724
vt 0.671738 0.841593
vt 0.643023 0.767817
vt 0.643023 0.747593
vt 0.671738 0.736927
vt 0.753007 0.828939
vt 0.724293 0.806698
vt 0.810436 0.806698
vt 0.810436 0.828939
vt 0.585594 0.557374
vt 0.671738 0.557374
vt 0.671738 0.719573
vt 0.585594 0.719573
vt 0.792517 0.429133
vt 0.792517 0.525371
vt 0.840295 0.267024
vt 0.840295 0.008677
vt 0.866130 0.008677
vt 0.866130 0.267024
vt 0.724293 0.267024
vt 0.775163 0.267024
vt 0.775163 0.525371
vt 0.724293 0.525371
vt 0.883484 0.267024
vt 0.883484 0.008677
vt 0.905639 0.008677
vt 0.905639 0.267024
vt 0.753007 0.911252
vt 0.724293 0.911252
vt 0.585594 0.747593
vt 0.585594 0.736927
vt 0.512493 0.971625
vt 0.483778 0.971626
vt 0.614309 0.841593
vt 0.614309 0.767817
vt 0.461084 0.142710
vt 0.428881 0.112603
vt 0.380281 0.082452
vt 0.380281 0.008677
vt 0.568241 0.008677
vt 0.568241 0.267024
vt 0.501626 0.267024
vt 0.496623 0.222164
vt 0.482604 0.182013
vt 0.856505 0.726386
vt 0.856505 0.765689
vt 0.799076 0.765689
vt 0.799076 0.726386
vt 0.529847 0.971625
vt 0.529847 0.937722
vt 0.558561 0.937723
vt 0.558561 0.971626
vt 0.358133 0.856972
vt 0.329419 0.856972
vt 0.968034 0.417890
vt 0.991323 0.417890
vt 0.991323 0.504034
vt 0.968034 0.504034
vt 0.856505 0.686235
vt 0.799076 0.686235
vt 0.671738 0.873962
vt 0.614309 0.874007
vt 0.585594 0.858947
vt 0.671738 0.858947
vt 0.483779 0.837576
vt 0.483778 0.807182
vt 0.541207 0.807184
vt 0.541208 0.837578
vt 0.241629 0.785607
vt 0.267024 0.785495
vt 0.267024 0.890161
vt 0.241639 0.890161
vt 0.381417 0.789828
vt 0.380281 0.542724
vt 0.462594 0.542738
vt 0.462594 0.789828
vt 0.706939 0.028901
vt 0.673039 0.051659
vt 0.658340 0.038827
vt 0.706939 0.008677
vt 0.619316 0.121069
vt 0.605296 0.161220
vt 0.590597 0.148388
vt 0.604617 0.108238
vt 0.640835 0.081766
vt 0.626136 0.068934
vt 0.358133 0.897123
vt 0.358133 0.936426
vt 0.329419 0.936426
vt 0.329419 0.897123
vt 0.815851 0.104824
vt 0.822941 0.104824
vt 0.815851 0.008677
vt 0.822941 0.008677
vt 0.585594 0.955184
vt 0.614309 0.955184
vt 0.341806 0.670444
vt 0.284377 0.670444
vt 0.284377 0.423827
vt 0.341806 0.423824
vt 0.541208 0.870094
vt 0.483779 0.870092
vt 0.963942 0.732365
vt 0.963942 0.646222
vt 0.989287 0.646222
vt 0.989287 0.732365
vt 0.094820 0.785495
vt 0.094820 0.890161
vt 0.066106 0.879495
vt 0.066106 0.859271
vt 0.169603 0.807736
vt 0.112174 0.807736
vt 0.112174 0.785495
vt 0.198318 0.785495
vt 0.585594 0.395173
vt 0.671738 0.395173
vt 0.792517 0.104914
vt 0.792517 0.008677
vt 0.866130 0.525371
vt 0.840295 0.525371
vt 0.724293 0.008677
vt 0.775163 0.008677
vt 0.905639 0.525371
vt 0.883484 0.525371
vt 0.169603 0.890050
vt 0.198318 0.890050
vt 0.008677 0.890161
vt 0.008677 0.879495
vt 0.558561 0.887449
vt 0.529847 0.887448
vt 0.037391 0.859271
vt 0.037391 0.785495
vt 0.461084 0.391338
vt 0.482604 0.352035
vt 0.496623 0.311884
vt 0.568241 0.525371
vt 0.380281 0.525371
vt 0.380281 0.451595
vt 0.428881 0.421445
vt 0.828817 0.842438
vt 0.828817 0.809374
vt 0.856505 0.809374
vt 0.856505 0.842438
vt 0.950680 0.032975
vt 0.950680 0.049579
vt 0.922993 0.049579
vt 0.922993 0.032975
vt 0.828817 0.875745
vt 0.856505 0.875745
vt 0.828817 0.783042
vt 0.856505 0.783042
vt 0.950681 0.265724
vt 0.950681 0.290758
vt 0.922994 0.290758
vt 0.922994 0.265725
vt 0.104543 0.442959
vt 0.102243 0.432103
vt 0.137850 0.423824
vt 0.137850 0.435650
vt 0.071478 0.459615
vt 0.068192 0.448761
vt 0.045147 0.484092
vt 0.039890 0.472676
vt 0.873858 0.598126
vt 0.873859 0.572282
vt 0.901546 0.572282
vt 0.901546 0.598126
vt 0.023121 0.526350
vt 0.008677 0.526350
vt 0.017898 0.501000
vt 0.027605 0.509456
vt 0.008677 0.743041
vt 0.020069 0.743041
vt 0.019663 0.768142
vt 0.008677 0.768142
vt 0.873859 0.814449
vt 0.901546 0.814449
vt 0.901547 0.839506
vt 0.873859 0.839507
vt 0.950681 0.008677
vt 0.922994 0.008677
vt 0.950680 0.504034
vt 0.922993 0.504034
vt 0.922993 0.475731
vt 0.950680 0.475731
vt 0.922993 0.441680
vt 0.950680 0.441680
vt 0.922993 0.406073
vt 0.950680 0.406073
vt 0.873859 0.542724
vt 0.901547 0.542724
vt 0.153774 0.009019
vt 0.185802 0.008677
vt 0.185802 0.062153
vt 0.150195 0.070432
vt 0.113623 0.023038
vt 0.116144 0.087090
vt 0.074320 0.044558
vt 0.087841 0.111005
vt 0.044213 0.076761
vt 0.065850 0.139329
vt 0.021455 0.110661
vt 0.032121 0.110661
vt 0.032009 0.136056
vt 0.056629 0.164679
vt 0.009768 0.136033
vt 0.023602 0.406470
vt 0.023692 0.383136
vt 0.056629 0.381370
vt 0.056629 0.406470
vt 0.008677 0.383136
vt 0.828817 0.909053
vt 0.856505 0.909053
vt 0.856505 0.942117
vt 0.828817 0.942117
vt 0.312065 0.945581
vt 0.284378 0.945581
vt 0.284377 0.928977
vt 0.312065 0.928977
vt 0.856505 0.968449
vt 0.828817 0.968449
vt 0.312065 0.712832
vt 0.284378 0.712832
vt 0.284378 0.687798
vt 0.312065 0.687798
vt 0.171157 0.442959
vt 0.173458 0.432103
vt 0.204222 0.459615
vt 0.207508 0.448761
vt 0.230553 0.484092
vt 0.235811 0.472676
vt 0.918900 0.784105
vt 0.946587 0.784105
vt 0.946588 0.809949
vt 0.918900 0.809949
vt 0.252579 0.526350
vt 0.248096 0.509456
vt 0.257802 0.501000
vt 0.267024 0.526350
vt 0.267024 0.743041
vt 0.267024 0.768142
vt 0.256038 0.768142
vt 0.255631 0.743041
vt 0.918901 0.567782
vt 0.918901 0.542724
vt 0.946588 0.542724
vt 0.946588 0.567782
vt 0.312065 0.969880
vt 0.284378 0.969879
vt 0.950680 0.308112
vt 0.950680 0.336415
vt 0.922993 0.336415
vt 0.922993 0.308112
vt 0.922993 0.370466
vt 0.950680 0.370466
vt 0.946588 0.839507
vt 0.918901 0.839506
vt 0.217830 0.009019
vt 0.221409 0.070432
vt 0.257981 0.023038
vt 0.255460 0.087090
vt 0.297284 0.044558
vt 0.283763 0.111005
vt 0.327391 0.076761
vt 0.305754 0.139329
vt 0.350149 0.110661
vt 0.339483 0.110661
vt 0.339595 0.136056
vt 0.314975 0.164679
vt 0.361836 0.136033
vt 0.348002 0.406470
vt 0.314976 0.406470
vt 0.314976 0.381370
vt 0.347912 0.383136
vt 0.362927 0.383136
vn -0.4802 -0.8771 0.0000
vn 0.7305 0.6829 0.0000
vn 0.1108 0.9938 0.0000
vn -1.0000 -0.0039 0.0000
vn -0.3297 -0.9441 0.0000
vn -0.0107 -0.9999 0.0000
vn 0.0000 1.0000 0.0000
vn -0.7305 -0.6829 0.0000
vn 0.0000 0.0000 1.0000
vn 0.4802 0.8771 0.0000
vn 0.3297 0.9441 0.0000
vn -1.0000 -0.0045 0.0004
vn -0.8303 -0.5574 0.0000
vn -1.0000 -0.0044 0.0000
vn 0.0011 -1.0000 0.0000
vn 0.0000 -1.0000 0.0000
vn -0.0000 -1.0000 -0.0004
vn 0.8498 0.5272 0.0000
vn 0.4802 -0.8771 0.0000
vn -0.7305 0.6829 0.0000
vn -0.1108 0.9938 0.0000
vn 1.0000 -0.0039 0.0000
vn 0.3297 -0.9441 0.0000
vn 0.0107 -0.9999 0.0000
vn 0.7305 -0.6829 0.0000
vn -0.4802 0.8771 0.0000
vn -0.3297 0.9441 0.0000
vn 1.0000 -0.0045 0.0004
vn 0.8303 -0.5574 0.0000
vn 1.0000 -0.0044 0.0000
vn -0.0011 -1.0000 0.0000
vn -0.8498 0.5272 0.0000
vn -0.4499 -0.8931 0.0000
vn -0.9665 -0.2565 0.0000
vn -0.2143 -0.9768 0.0000
vn -0.6809 -0.7324 0.0000
vn -0.9999 -0.0162 0.0000
vn 0.9398 0.3419 0.0000
vn 1.0000 0.0000 0.0000
vn -0.8224 -0.5688 0.0000
vn 0.6454 0.7638 0.0000
vn 0.4394 0.8983 0.0000
vn 0.2265 0.9740 0.0000
vn 0.7899 0.6133 0.0000
vn -0.9999 -0.0141 0.0000
vn 0.4499 -0.8931 0.0000
vn 0.9665 -0.2565 0.0000
vn 0.2143 -0.9768 0.0000
vn 0.6809 -0.7324 0.0000
vn 0.9999 -0.0162 0.0000
vn -0.9398 0.3419 0.0000
vn -1.0000 0.0000 0.0000
vn 0.8224 -0.5688 0.0000
vn -0.6454 0.7638 0.0000
vn -0.4394 0.8983 0.0000
vn -0.2265 0.9740 0.0000
vn -0.7899 0.6133 0.0000
vn 0.9999 -0.0141 0.0000
usemtl Wall_LP_1Mat
s off
f 25/1/1 50/2/1 55/3/1 24/4/1
f 6/5/2 30/6/2 29/7/2 5/8/2
f 43/9/3 33/10/3 32/11/3 42/12/3
f 53/13/4 37/14/4 7/15/4 11/16/4
f 26/17/5 51/18/5 50/2/5 25/1/5
f 26/17/6 27/19/6 10/20/6 51/18/6
f 2/21/7 11/22/7 7/23/7 18/24/7
f 54/25/8 23/26/8 24/27/8 55/28/8
f 12/29/9 15/30/9 13/31/9 14/32/9
f 18/33/9 20/34/9 19/35/9 21/36/9
f 22/37/9 28/38/9 29/39/9 23/40/9
f 25/41/9 31/42/9 32/43/9 26/44/9
f 23/40/9 29/39/9 30/45/9 24/46/9
f 26/44/9 32/43/9 33/47/9 27/48/9
f 24/46/9 30/45/9 31/42/9 25/41/9
f 41/49/10 31/50/10 30/51/10 6/52/10
f 42/12/11 32/11/11 31/50/11 41/49/11
f 35/53/9 34/54/9 37/55/9 38/56/9
f 1/57/9 37/55/9 34/54/9 16/58/9
f 17/59/7 20/60/7 18/24/7 7/23/7
f 49/61/12 2/62/12 18/63/12 21/64/12
f 54/25/13 52/65/13 22/66/13 23/26/13
f 9/67/14 8/68/14 12/69/14 14/70/14
f 13/71/7 28/72/7 22/73/7 14/74/7
f 21/75/15 12/76/15 8/77/15 49/78/15
f 56/79/7 38/80/7 37/81/7 53/82/7
f 7/83/9 37/55/9 1/57/9 17/84/9
f 45/85/9 47/86/9 48/87/9 46/88/9
f 4/89/7 46/90/7 48/91/7 3/92/7
f 39/93/16 40/94/16 47/95/16 45/96/16
f 19/97/17 15/98/17 12/76/17 21/75/17
f 22/73/7 52/99/7 9/100/7 14/74/7
f 28/101/18 36/102/18 5/8/18 29/7/18
f 28/72/7 13/71/7 44/103/7 36/104/7
f 6/105/9 5/106/9 36/107/9 44/108/9 40/109/9 39/110/9 43/111/9 42/112/9 41/113/9
f 79/114/19 78/115/19 101/116/19 96/117/19
f 61/118/20 60/119/20 82/120/20 83/121/20
f 43/9/21 91/122/21 85/123/21 33/10/21
f 99/124/22 65/125/22 62/126/22 88/127/22
f 80/128/23 79/114/23 96/117/23 97/129/23
f 80/128/24 97/129/24 10/20/24 27/19/24
f 58/130/7 72/131/7 62/132/7 65/133/7
f 100/134/25 101/135/25 78/136/25 77/137/25
f 66/138/9 68/139/9 67/140/9 69/141/9
f 72/142/9 75/143/9 73/144/9 74/145/9
f 76/146/9 77/147/9 82/148/9 81/149/9
f 79/150/9 80/151/9 85/152/9 84/153/9
f 77/147/9 78/154/9 83/155/9 82/148/9
f 80/151/9 27/48/9 33/47/9 85/152/9
f 78/154/9 79/150/9 84/153/9 83/155/9
f 90/156/26 61/157/26 83/158/26 84/159/26
f 91/122/27 90/156/27 84/159/27 85/123/27
f 35/53/9 38/56/9 88/160/9 86/161/9
f 57/162/9 70/163/9 86/161/9 88/160/9
f 71/164/7 62/132/7 72/131/7 74/165/7
f 95/166/28 75/167/28 72/168/28 58/169/28
f 100/134/29 77/137/29 76/170/29 98/171/29
f 64/172/30 68/173/30 66/174/30 63/175/30
f 67/176/7 68/177/7 76/178/7 81/179/7
f 75/180/31 95/181/31 63/182/31 66/183/31
f 56/79/7 99/184/7 88/185/7 38/80/7
f 62/186/9 71/187/9 57/162/9 88/160/9
f 45/85/9 46/88/9 94/188/9 93/189/9
f 4/89/7 59/190/7 94/191/7 46/90/7
f 39/93/16 45/96/16 93/192/16 89/193/16
f 73/194/17 75/180/17 66/183/17 69/195/17
f 76/178/7 68/177/7 64/196/7 98/197/7
f 81/198/32 82/120/32 60/119/32 87/199/32
f 81/179/7 87/200/7 92/201/7 67/176/7
f 61/202/9 90/203/9 91/204/9 43/111/9 39/110/9 89/205/9 92/206/9 87/207/9 60/208/9
f 119/209/33 118/210/33 124/211/33 125/212/33
f 135/213/34 116/214/34 122/215/34 134/216/34
f 114/217/35 119/209/35 125/212/35 120/218/35
f 118/210/36 117/219/36 123/220/36 124/211/36
f 142/221/37 115/222/37 121/223/37 143/224/37
f 125/225/9 129/226/9 127/227/9 120/228/9
f 124/229/9 131/230/9 129/226/9 125/225/9
f 123/231/9 133/232/9 131/230/9 124/229/9
f 136/233/38 141/234/38 140/235/38 137/236/38
f 122/237/9 137/238/9 140/239/9 134/240/9
f 144/241/9 143/242/9 121/243/9 139/244/9
f 145/245/39 144/246/39 139/247/39 138/248/39
f 134/240/9 140/239/9 133/232/9 123/231/9
f 117/249/40 135/213/40 134/216/40 123/250/40
f 133/251/41 132/252/41 130/253/41 131/254/41
f 128/255/42 129/256/42 131/254/42 130/253/42
f 126/257/43 127/258/43 129/256/43 128/255/43
f 141/234/44 132/259/44 133/260/44 140/235/44
f 109/261/9 105/262/9 126/263/9 128/264/9
f 108/265/9 109/261/9 128/264/9 130/266/9
f 113/267/9 108/265/9 130/266/9 132/268/9
f 112/269/9 113/267/9 132/268/9 141/270/9
f 110/271/9 112/269/9 104/272/9
f 141/270/9 104/272/9 112/269/9
f 103/273/9 104/272/9 141/270/9 136/274/9
f 107/275/9 103/273/9 136/274/9
f 136/233/39 137/236/39 144/246/39 145/245/39
f 137/238/9 122/237/9 143/242/9 144/241/9
f 116/214/45 142/221/45 143/224/45 122/215/45
f 111/276/9 106/277/9 145/278/9 138/279/9
f 107/275/9 106/277/9 102/280/9
f 136/274/9 145/278/9 106/277/9 107/275/9
f 161/281/46 166/282/46 165/283/46 160/284/46
f 174/285/47 173/286/47 163/287/47 158/288/47
f 114/217/48 120/218/48 166/282/48 161/281/48
f 160/284/49 165/283/49 164/289/49 159/290/49
f 181/291/50 182/292/50 162/293/50 157/294/50
f 166/295/9 120/228/9 127/227/9 168/296/9
f 165/297/9 166/295/9 168/296/9 170/298/9
f 164/299/9 165/297/9 170/298/9 172/300/9
f 175/301/51 176/302/51 179/303/51 180/304/51
f 163/305/9 173/306/9 179/307/9 176/308/9
f 183/309/9 178/310/9 162/311/9 182/312/9
f 184/313/52 177/314/52 178/315/52 183/316/52
f 173/306/9 164/299/9 172/300/9 179/307/9
f 159/317/53 164/318/53 173/286/53 174/285/53
f 172/319/54 170/320/54 169/321/54 171/322/54
f 167/323/55 169/321/55 170/320/55 168/324/55
f 126/257/56 167/323/56 168/324/56 127/258/56
f 180/304/57 179/303/57 172/325/57 171/326/57
f 152/327/9 167/328/9 126/263/9 105/262/9
f 151/329/9 169/330/9 167/328/9 152/327/9
f 156/331/9 171/332/9 169/330/9 151/329/9
f 155/333/9 180/334/9 171/332/9 156/331/9
f 153/335/9 148/336/9 155/333/9
f 180/334/9 155/333/9 148/336/9
f 147/337/9 175/338/9 180/334/9 148/336/9
f 150/339/9 175/338/9 147/337/9
f 175/301/52 184/313/52 183/316/52 176/302/52
f 176/308/9 183/309/9 182/312/9 163/305/9
f 158/288/58 163/287/58 182/292/58 181/291/58
f 154/340/9 177/341/9 184/342/9 149/343/9
f 150/339/9 146/344/9 149/343/9
f 175/338/9 150/339/9 149/343/9 184/342/9
