# Blender v3.0.0 OBJ File: 'Tile_6.blend'
# www.blender.org
mtllib Stair.mtl
o Ground_LP.008_Cube.028
v -0.386151 0.109727 -0.500000
v -0.278226 0.109727 -0.500000
v -0.166873 0.162444 -0.500000
v -0.057140 0.217952 -0.500000
v 0.055349 0.272851 -0.500000
v 0.163890 0.324690 -0.500000
v 0.278307 0.376281 -0.500000
v 0.389224 0.436930 -0.500000
v 0.389224 0.436930 0.500000
v 0.278307 0.376281 0.500000
v 0.163890 0.324690 0.500000
v 0.055349 0.272851 0.500000
v -0.057140 0.217952 0.500000
v -0.166873 0.162444 0.500000
v -0.278226 0.109727 0.500000
v -0.386151 0.109727 0.500000
v -0.386151 0.060010 0.500000
v -0.499546 0.060010 0.500000
v -0.499546 0.060010 -0.500000
v -0.386151 0.060010 -0.500000
v -0.499546 0.000000 0.500000
v 0.502862 0.498737 -0.500000
v -0.278226 0.161535 -0.500000
v -0.278226 0.161535 0.500000
v -0.166873 0.217952 -0.500000
v -0.166873 0.217952 0.500000
v -0.057140 0.271210 -0.500000
v -0.057140 0.271210 0.500000
v 0.055349 0.324643 -0.500000
v 0.055349 0.324643 0.500000
v 0.163890 0.376971 -0.500000
v 0.163890 0.376971 0.500000
v 0.278307 0.436376 -0.500000
v 0.278307 0.436376 0.500000
v 0.389224 0.500000 -0.500000
v 0.389224 0.500000 0.500000
v -0.499546 0.000000 -0.500000
v 0.502862 0.498737 0.500000
vt 0.028505 0.945177
vt 0.028505 0.906373
vt 0.972009 0.906372
vt 0.972009 0.945176
vt 0.028505 0.829789
vt 0.028505 0.792342
vt 0.972009 0.792341
vt 0.972009 0.829788
vt 0.028505 0.713341
vt 0.028505 0.680763
vt 0.972009 0.680764
vt 0.972009 0.713341
vt 0.028505 0.605821
vt 0.028505 0.573548
vt 0.972009 0.573548
vt 0.972009 0.605822
vt 0.028505 0.495873
vt 0.028505 0.462686
vt 0.972009 0.462686
vt 0.972009 0.495873
vt 0.028505 0.386920
vt 0.028505 0.352332
vt 0.972009 0.352332
vt 0.972009 0.386920
vt 0.028505 0.275446
vt 0.028505 0.243163
vt 0.972009 0.243163
vt 0.972009 0.275446
vt 0.028505 0.168645
vt 0.972009 0.168646
vt 0.028505 0.137666
vt 0.972009 0.137665
vt 0.028505 0.059372
vt 0.972009 0.059371
vt 0.028505 0.021978
vt 0.972009 0.021978
vt 0.028506 1.020820
vt 0.972009 1.020819
vn -1.0000 0.0000 0.0000
vn 0.0000 1.0000 0.0000
vn -0.0082 1.0000 0.0000
vn -0.0146 0.9999 -0.0000
vn -0.0004 1.0000 -0.0000
vn 0.0060 1.0000 0.0000
vn -0.0050 1.0000 0.0000
vn 0.0111 0.9999 0.0000
usemtl Stair_Baked
s off
f 35/1/1 8/2/1 9/3/1 36/4/1
f 33/5/1 7/6/1 10/7/1 34/8/1
f 31/9/1 6/10/1 11/11/1 32/12/1
f 29/13/1 5/14/1 12/15/1 30/16/1
f 27/17/1 4/18/1 13/19/1 28/20/1
f 25/21/1 3/22/1 14/23/1 26/24/1
f 23/25/1 2/26/1 15/27/1 24/28/1
f 2/26/2 1/29/2 16/30/2 15/27/2
f 1/29/1 20/31/1 17/32/1 16/30/1
f 20/31/2 19/33/2 18/34/2 17/32/2
f 19/33/1 37/35/1 21/36/1 18/34/1
f 3/22/3 23/25/3 24/28/3 14/23/3
f 4/18/2 25/21/2 26/24/2 13/19/2
f 5/14/4 27/17/4 28/20/4 12/15/4
f 6/10/5 29/13/5 30/16/5 11/11/5
f 7/6/6 31/9/6 32/12/6 10/7/6
f 8/2/7 33/5/7 34/8/7 9/3/7
f 22/37/8 35/1/8 36/4/8 38/38/8
