# Blender v3.0.0 OBJ File: 'KeepTheLantern - 4.blend'
# www.blender.org
mtllib Wall.mtl
o Wall_Baked_Wall.003_Cube.012
v 0.000000 1.000000 -0.441101
v 0.000000 1.000000 0.372875
v 0.000000 1.000000 -0.500000
v 0.000000 1.000000 0.431774
v -0.441101 1.000000 -0.441101
v -0.441101 1.000000 0.372875
v -0.500000 1.000000 0.431774
v -0.500000 1.000000 -0.500000
v 0.000000 0.821074 0.388895
v 0.000000 0.821074 0.444468
v 0.000000 0.783605 0.444468
v 0.000000 0.783605 0.333321
v 0.000000 -0.000000 0.500042
v 0.000000 0.013722 0.500042
v 0.000000 0.013722 0.333321
v 0.000000 0.950000 0.431774
v 0.000000 1.000000 0.431774
v 0.000000 0.950000 0.388895
v 0.000000 1.000000 0.333321
v 0.000000 0.000053 0.333321
v -0.139694 0.755810 0.444468
v -0.215761 0.714162 0.444468
v -0.215761 0.714162 0.333321
v -0.139694 0.755810 0.333321
v -0.240595 0.742611 0.388895
v -0.298864 0.680285 0.388895
v -0.298864 0.680285 0.444468
v -0.240595 0.742611 0.444468
v -0.086822 0.811393 0.388895
v -0.086822 0.811393 0.444468
v -0.313919 0.013722 0.333321
v -0.313744 0.058883 0.333321
v -0.313744 0.058883 0.500042
v -0.313919 0.013722 0.500042
v -0.061987 0.782943 0.444468
v -0.061987 0.782943 0.333321
v -0.342805 0.058883 0.333321
v -0.342891 0.058883 0.444468
v -0.274030 0.651836 0.333321
v -0.274030 0.651836 0.444468
v -0.297648 0.537078 0.500042
v -0.297432 0.586226 0.500042
v -0.500000 0.586226 0.500042
v -0.500000 0.537096 0.500042
v -0.340693 0.537123 0.444468
v -0.500000 0.537096 0.444468
v -0.500000 0.058883 0.444468
v -0.318075 0.586226 0.444468
v -0.357216 0.586226 0.444468
v -0.164528 0.784259 0.444468
v -0.164528 0.784259 0.388895
v -0.313919 -0.000000 0.500042
v -0.500000 0.013722 0.500042
v -0.500000 -0.000000 0.500042
v -0.500000 0.058883 0.500042
v -0.340693 0.537123 0.333321
v -0.318075 0.586226 0.333321
v -0.297432 0.586226 0.333321
v -0.297647 0.537078 0.333321
v -0.500000 1.000000 0.431774
v -0.500000 0.950000 0.431774
v -0.500000 0.950000 0.388895
v -0.357217 0.586226 0.388895
v -0.500000 0.586226 0.388895
v -0.500000 1.000000 0.333321
v -0.500000 0.000053 0.333321
v 0.441101 1.000000 -0.441101
v 0.441101 1.000000 0.372875
v 0.500000 1.000000 0.431774
v 0.500000 1.000000 -0.500000
v 0.139694 0.755810 0.444468
v 0.215761 0.714162 0.444468
v 0.215761 0.714162 0.333321
v 0.139694 0.755810 0.333321
v 0.240595 0.742611 0.388895
v 0.298864 0.680285 0.388895
v 0.298864 0.680285 0.444468
v 0.240595 0.742611 0.444468
v 0.086822 0.811393 0.388895
v 0.086822 0.811393 0.444468
v 0.313919 0.013722 0.333321
v 0.313744 0.058883 0.333321
v 0.313744 0.058883 0.500042
v 0.313919 0.013722 0.500042
v 0.061987 0.782943 0.444468
v 0.061987 0.782943 0.333321
v 0.342805 0.058883 0.333321
v 0.342891 0.058883 0.444468
v 0.274030 0.651836 0.333321
v 0.274030 0.651836 0.444468
v 0.297648 0.537078 0.500042
v 0.297432 0.586226 0.500042
v 0.500000 0.586226 0.500042
v 0.500000 0.537096 0.500042
v 0.340693 0.537123 0.444468
v 0.500000 0.537096 0.444468
v 0.500000 0.058883 0.444468
v 0.318075 0.586226 0.444468
v 0.357216 0.586226 0.444468
v 0.164528 0.784259 0.444468
v 0.164528 0.784259 0.388895
v 0.313919 -0.000000 0.500042
v 0.500000 0.013722 0.500042
v 0.500000 -0.000000 0.500042
v 0.500000 0.058883 0.500042
v 0.340693 0.537123 0.333321
v 0.318075 0.586226 0.333321
v 0.297432 0.586226 0.333321
v 0.297647 0.537078 0.333321
v 0.500000 1.000000 0.431774
v 0.500000 0.950000 0.431774
v 0.500000 0.950000 0.388895
v 0.357217 0.586226 0.388895
v 0.500000 0.586226 0.388895
v 0.500000 1.000000 0.333321
v 0.500000 0.000053 0.333321
vt 0.920662 0.680737
vt 0.920662 0.938575
vt 0.444867 0.938575
vt 0.444867 0.680736
vt 0.955090 0.680737
vt 0.955090 0.973003
vt 0.410438 0.973003
vt 0.410438 0.680737
vt 0.281880 0.828123
vt 0.251707 0.798892
vt 0.291601 0.768479
vt 0.314340 0.793672
vt 0.217636 0.830503
vt 0.189342 0.796930
vt 0.211465 0.777557
vt 0.237301 0.810897
vt 0.317268 0.896483
vt 0.283022 0.879582
vt 0.296255 0.858791
vt 0.327359 0.877162
vt 0.246002 0.260967
vt 0.236068 0.285428
vt 0.135018 0.245911
vt 0.133363 0.210470
vt 0.310885 0.851469
vt 0.338675 0.814225
vt 0.358800 0.828241
vt 0.333669 0.864326
vt 0.230978 0.300430
vt 0.154313 0.279022
vt 0.274263 0.739427
vt 0.223421 0.763288
vt 0.168409 0.678633
vt 0.170946 0.695965
vt 0.084903 0.705448
vt 0.083614 0.674592
vt 0.174484 0.647845
vt 0.084268 0.648711
vt 0.046383 0.328439
vt 0.190803 0.712935
vt 0.168793 0.727561
vt 0.267395 0.837384
vt 0.251415 0.857679
vt 0.252361 0.010955
vt 0.260765 0.016470
vt 0.126208 0.203224
vt 0.020118 0.278859
vt 0.016045 0.272246
vt 0.032629 0.300870
vt 0.254543 0.634544
vt 0.263527 0.709297
vt 0.263404 0.700949
vt 0.259872 0.659988
vt 0.358800 0.076377
vt 0.301405 0.966638
vt 0.298178 0.989045
vt 0.074117 0.956776
vt 0.077344 0.934369
vt 0.304172 0.947423
vt 0.080111 0.915154
vt 0.154952 0.756550
vt 0.089561 0.756419
vt 0.517860 0.034285
vt 0.810126 0.034285
vt 0.810126 0.618787
vt 0.517860 0.618787
vt 0.444867 0.938575
vt 0.920662 0.938575
vt 0.955090 0.973003
vt 0.410438 0.973003
vt 0.281880 0.828123
vt 0.314340 0.793672
vt 0.291601 0.768479
vt 0.251707 0.798892
vt 0.217636 0.830503
vt 0.237301 0.810897
vt 0.211465 0.777557
vt 0.189342 0.796930
vt 0.296255 0.858791
vt 0.283022 0.879582
vt 0.246002 0.260967
vt 0.133363 0.210470
vt 0.135018 0.245911
vt 0.236068 0.285428
vt 0.310885 0.851469
vt 0.338675 0.814225
vt 0.230978 0.300430
vt 0.154313 0.279022
vt 0.274263 0.739427
vt 0.223421 0.763288
vt 0.168409 0.678633
vt 0.083614 0.674592
vt 0.084903 0.705448
vt 0.170946 0.695965
vt 0.046383 0.328439
vt 0.084268 0.648711
vt 0.174484 0.647845
vt 0.190803 0.712935
vt 0.168793 0.727561
vt 0.267395 0.837384
vt 0.251415 0.857679
vt 0.126208 0.203224
vt 0.020118 0.278859
vt 0.016045 0.272246
vt 0.032629 0.300870
vt 0.254543 0.634544
vt 0.263527 0.709297
vt 0.263404 0.700949
vt 0.259872 0.659988
vt 0.077344 0.934369
vt 0.074117 0.956776
vt 0.080111 0.915154
vt 0.154952 0.756550
vt 0.089561 0.756419
vt 0.810126 0.618787
vt 0.810126 0.034285
vn 0.0000 1.0000 0.0000
vn 0.4802 -0.8771 0.0000
vn -0.7305 0.6829 0.0000
vn -0.1108 0.9938 0.0000
vn 1.0000 -0.0039 -0.0000
vn 0.3297 -0.9441 0.0000
vn 0.0107 -0.9999 0.0000
vn 0.7305 -0.6829 0.0000
vn 0.0000 -0.0000 1.0000
vn -0.4802 0.8771 0.0000
vn -0.3297 0.9441 0.0000
vn 1.0000 -0.0045 0.0004
vn 0.8303 -0.5574 0.0000
vn 1.0000 -0.0044 0.0000
vn -0.0005 -1.0000 -0.0002
vn -0.0010 -1.0000 0.0000
vn -0.0010 -1.0000 -0.0001
vn 0.0000 -1.0000 0.0000
vn 0.0000 -1.0000 -0.0004
vn -0.8498 0.5272 0.0000
vn -0.4802 -0.8771 0.0000
vn 0.7305 0.6829 0.0000
vn 0.1108 0.9938 0.0000
vn -1.0000 -0.0039 -0.0000
vn -0.3297 -0.9441 0.0000
vn -0.0107 -0.9999 0.0000
vn -0.7305 -0.6829 0.0000
vn 0.4802 0.8771 0.0000
vn 0.3297 0.9441 0.0000
vn -1.0000 -0.0045 0.0004
vn -0.8303 -0.5574 0.0000
vn -1.0000 -0.0044 0.0000
vn 0.0005 -1.0000 -0.0002
vn 0.0007 -1.0000 -0.0001
vn 0.0010 -1.0000 0.0000
vn 0.8498 0.5272 0.0000
usemtl Material.017
s 1
f 1/1/1 5/2/1 6/3/1 2/4/1
f 1/1/1 3/5/1 8/6/1 5/2/1
f 5/2/1 8/6/1 7/7/1 6/3/1
f 6/3/1 7/7/1 4/8/1 2/4/1
f 21/9/2 22/10/2 23/11/2 24/12/2
f 25/13/3 26/14/3 27/15/3 28/16/3
f 9/17/4 29/18/4 30/19/4 10/20/4
f 31/21/5 32/22/5 33/23/5 34/24/5
f 35/25/6 21/9/6 24/12/6 36/26/6
f 35/25/7 36/26/7 12/27/7 11/28/7
f 37/29/1 38/30/1 33/23/1 32/22/1
f 39/31/8 23/11/8 22/10/8 40/32/8
f 41/33/9 42/34/9 43/35/9 44/36/9
f 38/30/9 45/37/9 46/38/9 47/39/9
f 48/40/9 40/32/9 27/15/9 49/41/9
f 21/9/9 35/25/9 30/19/9 50/42/9
f 40/32/9 22/10/9 28/16/9 27/15/9
f 35/25/9 11/28/9 10/20/9 30/19/9
f 22/10/9 21/9/9 50/42/9 28/16/9
f 51/43/10 25/13/10 28/16/10 50/42/10
f 29/18/11 51/43/11 50/42/11 30/19/11
f 13/44/9 14/45/9 34/24/9 52/46/9
f 53/47/9 54/48/9 52/46/9 34/24/9
f 55/49/1 33/23/1 38/30/1 47/39/1
f 56/50/12 45/37/12 38/30/12 37/29/12
f 39/31/13 40/32/13 48/40/13 57/51/13
f 58/52/14 42/34/14 41/33/14 59/53/14
f 43/35/1 42/34/1 48/40/1 49/41/1
f 45/37/15 56/50/16 59/53/16 41/33/17
f 15/54/1 31/21/1 34/24/1 14/45/1
f 33/23/9 55/49/9 53/47/9 34/24/9
f 16/55/9 17/56/9 60/57/9 61/58/9
f 18/59/18 16/55/18 61/58/18 62/60/18
f 46/38/19 45/37/15 41/33/17 44/36/19
f 48/40/1 42/34/1 58/52/1 57/51/1
f 49/41/20 27/15/20 26/14/20 63/61/20
f 49/41/1 63/61/1 64/62/1 43/35/1
f 25/13/9 51/43/9 29/18/9 9/17/9 18/59/9 62/60/9 64/62/9 63/61/9 26/14/9
f 19/63/9 65/64/9 66/65/9 20/66/9
f 1/1/1 2/4/1 68/67/1 67/68/1
f 1/1/1 67/68/1 70/69/1 3/5/1
f 67/68/1 68/67/1 69/70/1 70/69/1
f 68/67/1 2/4/1 4/8/1 69/70/1
f 71/71/21 74/72/21 73/73/21 72/74/21
f 75/75/22 78/76/22 77/77/22 76/78/22
f 9/17/23 10/20/23 80/79/23 79/80/23
f 81/81/24 84/82/24 83/83/24 82/84/24
f 85/85/25 86/86/25 74/72/25 71/71/25
f 85/85/26 11/28/26 12/27/26 86/86/26
f 87/87/1 82/84/1 83/83/1 88/88/1
f 89/89/27 90/90/27 72/74/27 73/73/27
f 91/91/9 94/92/9 93/93/9 92/94/9
f 88/88/9 97/95/9 96/96/9 95/97/9
f 98/98/9 99/99/9 77/77/9 90/90/9
f 71/71/9 100/100/9 80/79/9 85/85/9
f 90/90/9 77/77/9 78/76/9 72/74/9
f 85/85/9 80/79/9 10/20/9 11/28/9
f 72/74/9 78/76/9 100/100/9 71/71/9
f 101/101/28 100/100/28 78/76/28 75/75/28
f 79/80/29 80/79/29 100/100/29 101/101/29
f 13/44/9 102/102/9 84/82/9 14/45/9
f 103/103/9 84/82/9 102/102/9 104/104/9
f 105/105/1 97/95/1 88/88/1 83/83/1
f 106/106/30 87/87/30 88/88/30 95/97/30
f 89/89/31 107/107/31 98/98/31 90/90/31
f 108/108/32 109/109/32 91/91/32 92/94/32
f 93/93/1 99/99/1 98/98/1 92/94/1
f 95/97/33 91/91/34 109/109/35 106/106/35
f 15/54/1 14/45/1 84/82/1 81/81/1
f 83/83/9 84/82/9 103/103/9 105/105/9
f 16/55/9 111/110/9 110/111/9 17/56/9
f 18/59/18 112/112/18 111/110/18 16/55/18
f 96/96/19 94/92/19 91/91/34 95/97/33
f 98/98/1 107/107/1 108/108/1 92/94/1
f 99/99/36 113/113/36 76/78/36 77/77/36
f 99/99/1 93/93/1 114/114/1 113/113/1
f 75/75/9 76/78/9 113/113/9 114/114/9 112/112/9 18/59/9 9/17/9 79/80/9 101/101/9
f 19/63/9 20/66/9 116/115/9 115/116/9
