# Blender v3.0.0 OBJ File: 'Tile_8.blend'
# www.blender.org
mtllib Column.mtl
o colonne.001_Cylinder.001
v 0.000009 0.147778 -0.108166
v 0.000009 0.843202 -0.108166
v 0.076494 0.147778 -0.076485
v 0.076494 0.843202 -0.076485
v 0.108175 0.147778 0.000000
v 0.108175 0.843202 0.000000
v 0.076494 0.147778 0.076485
v 0.076494 0.843202 0.076485
v 0.000009 0.147778 0.108166
v 0.000009 0.843202 0.108166
v -0.076476 0.147778 0.076485
v -0.076476 0.843202 0.076485
v -0.108157 0.147778 -0.000000
v -0.108157 0.843202 -0.000000
v -0.076476 0.147778 -0.076485
v -0.076476 0.843202 -0.076485
v -0.172704 0.000000 0.172704
v -0.172704 0.086928 0.172704
v -0.172704 0.000000 -0.172704
v -0.172704 0.086928 -0.172704
v 0.172704 0.000000 0.172704
v 0.172704 0.086928 0.172704
v 0.172704 0.000000 -0.172704
v 0.172704 0.086928 -0.172704
v -0.131397 0.086928 0.131406
v -0.131397 0.086928 -0.131406
v 0.131415 0.086928 0.131406
v 0.131415 0.086928 -0.131406
v -0.131397 0.152124 0.131406
v -0.131397 0.152124 -0.131406
v 0.131415 0.152124 0.131406
v 0.131415 0.152124 -0.131406
v 0.172785 0.999345 0.172704
v 0.172623 0.912417 0.172704
v 0.172785 0.999345 -0.172704
v 0.172623 0.912417 -0.172704
v -0.172623 1.000000 0.172704
v -0.172785 0.913072 0.172704
v -0.172623 1.000000 -0.172704
v -0.172785 0.913072 -0.172704
v 0.131313 0.912545 0.131406
v 0.131313 0.912545 -0.131406
v -0.131499 0.912943 0.131406
v -0.131499 0.912943 -0.131406
v 0.131160 0.847350 0.131406
v 0.131160 0.847350 -0.131406
v -0.131652 0.847748 0.131406
v -0.131652 0.847748 -0.131406
vt 0.804147 0.945913
vt 0.804147 0.488558
vt 0.854784 0.488558
vt 0.854784 0.945913
vt 0.631435 0.467771
vt 0.631435 0.010416
vt 0.682072 0.010401
vt 0.682072 0.467756
vt 0.732709 0.010416
vt 0.732709 0.467771
vt 0.753511 0.467756
vt 0.753510 0.010401
vt 0.804147 0.010401
vt 0.804148 0.467756
vt 0.854784 0.010401
vt 0.854784 0.467756
vt 0.610633 0.010416
vt 0.610633 0.467771
vt 0.559996 0.467756
vt 0.559996 0.010401
vt 0.243953 0.662482
vt 0.298762 0.662482
vt 0.337518 0.701238
vt 0.337518 0.756047
vt 0.298762 0.794803
vt 0.243953 0.794803
vt 0.205197 0.756047
vt 0.205197 0.701238
vt 0.509359 0.467771
vt 0.509359 0.010416
vt 0.753510 0.945913
vt 0.753510 0.488558
vt 0.298762 0.641680
vt 0.243953 0.641680
vt 0.205197 0.602924
vt 0.205197 0.548115
vt 0.243953 0.509359
vt 0.298762 0.509359
vt 0.337518 0.548115
vt 0.337518 0.602924
vt 0.875586 0.010401
vt 0.932755 0.010401
vt 0.932755 0.239078
vt 0.875586 0.239078
vt 0.509359 0.683369
vt 0.566528 0.683369
vt 0.566528 0.912047
vt 0.509359 0.912047
vt 0.587330 0.683369
vt 0.644500 0.683369
vt 0.644500 0.912047
vt 0.587330 0.912047
vt 0.358320 0.509359
vt 0.415489 0.509359
vt 0.415489 0.738037
vt 0.358320 0.738037
vt 0.488557 0.239078
vt 0.259880 0.239078
vt 0.259880 0.010401
vt 0.488557 0.010401
vt 0.010401 0.239078
vt 0.010401 0.010401
vt 0.037748 0.037742
vt 0.037748 0.211737
vt 0.918463 0.758839
vt 0.918463 0.932833
vt 0.875586 0.932833
vt 0.875586 0.758839
vt 0.239078 0.010401
vt 0.211743 0.037742
vt 0.239078 0.239078
vt 0.211743 0.211737
vt 0.683354 0.662568
vt 0.509359 0.662568
vt 0.509359 0.488573
vt 0.683354 0.488573
vt 0.479168 0.704192
vt 0.479168 0.878187
vt 0.436291 0.878187
vt 0.436291 0.704192
vt 0.401197 0.758839
vt 0.401197 0.932833
vt 0.358320 0.932833
vt 0.358320 0.758839
vt 0.982142 0.758838
vt 0.982142 0.932833
vt 0.939265 0.932833
vt 0.939265 0.758838
vt 0.932756 0.738037
vt 0.875586 0.738037
vt 0.875586 0.509359
vt 0.932756 0.509359
vt 0.932755 0.488558
vt 0.875586 0.488558
vt 0.875586 0.259880
vt 0.932755 0.259880
vt 0.722471 0.912047
vt 0.665301 0.912047
vt 0.665301 0.683369
vt 0.722471 0.683369
vt 0.067570 0.932833
vt 0.010401 0.932833
vt 0.010401 0.704156
vt 0.067570 0.704156
vt 0.259880 0.259880
vt 0.488557 0.259880
vt 0.488557 0.488558
vt 0.259880 0.488558
vt 0.010401 0.488558
vt 0.010401 0.259880
vt 0.037750 0.287222
vt 0.037750 0.461216
vt 0.479168 0.509359
vt 0.479168 0.683354
vt 0.436291 0.683391
vt 0.436291 0.509396
vt 0.239078 0.259880
vt 0.211745 0.287222
vt 0.239078 0.488558
vt 0.211745 0.461216
vt 0.184395 0.683354
vt 0.010401 0.683354
vt 0.010401 0.509359
vt 0.184395 0.509359
vt 0.088372 0.878150
vt 0.088372 0.704156
vt 0.131249 0.704192
vt 0.131249 0.878187
vt 0.268876 0.989599
vt 0.268876 0.815604
vt 0.311753 0.815604
vt 0.311753 0.989599
vt 0.205197 0.989599
vt 0.205197 0.815604
vt 0.248074 0.815604
vt 0.248074 0.989599
vn 0.3827 0.0000 -0.9239
vn 0.9239 0.0000 -0.3827
vn 0.9239 0.0000 0.3827
vn 0.3827 0.0000 0.9239
vn -0.3827 0.0000 0.9239
vn -0.9239 0.0000 0.3827
vn 0.0000 1.0000 0.0000
vn -0.9239 0.0000 -0.3827
vn -0.3827 0.0000 -0.9239
vn 0.0000 -1.0000 -0.0000
vn -1.0000 0.0000 0.0000
vn 0.0000 0.0000 -1.0000
vn 1.0000 0.0000 0.0000
vn 0.0000 0.0000 1.0000
vn 1.0000 -0.0019 0.0000
vn -1.0000 0.0019 0.0000
vn 0.0019 1.0000 0.0000
vn -0.0031 -1.0000 0.0000
vn -0.0017 -1.0000 0.0000
vn -0.0015 -1.0000 0.0000
vn -1.0000 0.0023 0.0000
vn 1.0000 -0.0023 0.0000
usemtl Column
s off
f 1/1/1 2/2/1 4/3/1 3/4/1
f 3/5/2 4/6/2 6/7/2 5/8/2
f 5/8/3 6/7/3 8/9/3 7/10/3
f 7/11/4 8/12/4 10/13/4 9/14/4
f 9/14/5 10/13/5 12/15/5 11/16/5
f 11/17/6 12/18/6 14/19/6 13/20/6
f 4/21/7 2/22/7 16/23/7 14/24/7 12/25/7 10/26/7 8/27/7 6/28/7
f 13/20/8 14/19/8 16/29/8 15/30/8
f 15/31/9 16/32/9 2/2/9 1/1/9
f 1/33/10 3/34/10 5/35/10 7/36/10 9/37/10 11/38/10 13/39/10 15/40/10
f 17/41/11 18/42/11 20/43/11 19/44/11
f 19/45/12 20/46/12 24/47/12 23/48/12
f 23/49/13 24/50/13 22/51/13 21/52/13
f 21/53/14 22/54/14 18/55/14 17/56/14
f 19/57/10 23/58/10 21/59/10 17/60/10
f 20/61/7 18/62/7 25/63/7 26/64/7
f 25/65/14 27/66/14 31/67/14 29/68/14
f 18/62/7 22/69/7 27/70/7 25/63/7
f 24/71/7 20/61/7 26/64/7 28/72/7
f 22/69/7 24/71/7 28/72/7 27/70/7
f 32/73/7 30/74/7 29/75/7 31/76/7
f 28/77/12 26/78/12 30/79/12 32/80/12
f 27/81/13 28/82/13 32/83/13 31/84/13
f 26/85/11 25/86/11 29/87/11 30/88/11
f 33/89/15 34/90/15 36/91/15 35/92/15
f 35/93/12 36/94/12 40/95/12 39/96/12
f 39/97/16 40/98/16 38/99/16 37/100/16
f 37/101/14 38/102/14 34/103/14 33/104/14
f 35/105/17 39/106/17 37/107/17 33/108/17
f 36/109/18 34/110/18 41/111/18 42/112/18
f 41/113/14 43/114/14 47/115/14 45/116/14
f 34/110/19 38/117/19 43/118/19 41/111/19
f 40/119/19 36/109/19 42/112/19 44/120/19
f 38/117/18 40/119/18 44/120/18 43/118/18
f 48/121/20 46/122/20 45/123/20 47/124/20
f 44/125/12 42/126/12 46/127/12 48/128/12
f 43/129/21 44/130/21 48/131/21 47/132/21
f 42/133/22 41/134/22 45/135/22 46/136/22
